<svg xmlns="http://www.w3.org/2000/svg" xmlns:xlink="http://www.w3.org/1999/xlink" width="372" height="84.097" viewBox="0 0 372 84.097">
  <defs>
    <style>
      .cls-1 {
        fill: #fff;
      }

      .cls-2 {
        fill: #076fe1;
      }

      .cls-3 {
        filter: url(#Rectangle_2);
      }

      .cls-4 {
        filter: url(#Path_16);
      }

      .cls-5 {
        filter: url(#Path_15);
      }

      .cls-6 {
        filter: url(#Path_14);
      }

      .cls-7 {
        filter: url(#Path_13);
      }

      .cls-8 {
        filter: url(#Path_12);
      }

      .cls-9 {
        filter: url(#Path_11);
      }

      .cls-10 {
        filter: url(#Path_10);
      }

      .cls-11 {
        filter: url(#Path_9);
      }

      .cls-12 {
        filter: url(#Path_8);
      }

      .cls-13 {
        filter: url(#Path_7);
      }

      .cls-14 {
        filter: url(#Path_6);
      }

      .cls-15 {
        filter: url(#Path_5);
      }

      .cls-16 {
        filter: url(#Path_4);
      }

      .cls-17 {
        filter: url(#Path_3);
      }

      .cls-18 {
        filter: url(#Path_2);
      }
    </style>
    <filter id="Path_2" x="76.854" y="0.099" width="57.18" height="71.08" filterUnits="userSpaceOnUse">
      <feOffset dy="3" input="SourceAlpha"/>
      <feGaussianBlur stdDeviation="3" result="blur"/>
      <feFlood flood-opacity="0.502"/>
      <feComposite operator="in" in2="blur"/>
      <feComposite in="SourceGraphic"/>
    </filter>
    <filter id="Path_3" x="116.034" y="0.1" width="51.979" height="71.901" filterUnits="userSpaceOnUse">
      <feOffset dy="3" input="SourceAlpha"/>
      <feGaussianBlur stdDeviation="3" result="blur-2"/>
      <feFlood flood-opacity="0.502"/>
      <feComposite operator="in" in2="blur-2"/>
      <feComposite in="SourceGraphic"/>
    </filter>
    <filter id="Path_4" x="197.522" y="7.577" width="41.699" height="64.351" filterUnits="userSpaceOnUse">
      <feOffset dy="3" input="SourceAlpha"/>
      <feGaussianBlur stdDeviation="3" result="blur-3"/>
      <feFlood flood-opacity="0.502"/>
      <feComposite operator="in" in2="blur-3"/>
      <feComposite in="SourceGraphic"/>
    </filter>
    <filter id="Path_5" x="226.082" y="17.743" width="48.801" height="54.258" filterUnits="userSpaceOnUse">
      <feOffset dy="3" input="SourceAlpha"/>
      <feGaussianBlur stdDeviation="3" result="blur-4"/>
      <feFlood flood-opacity="0.502"/>
      <feComposite operator="in" in2="blur-4"/>
      <feComposite in="SourceGraphic"/>
    </filter>
    <filter id="Path_6" x="264.509" y="0.099" width="48.801" height="71.902" filterUnits="userSpaceOnUse">
      <feOffset dy="3" input="SourceAlpha"/>
      <feGaussianBlur stdDeviation="3" result="blur-5"/>
      <feFlood flood-opacity="0.502"/>
      <feComposite operator="in" in2="blur-5"/>
      <feComposite in="SourceGraphic"/>
    </filter>
    <filter id="Path_7" x="303.834" y="0.099" width="27.869" height="71.08" filterUnits="userSpaceOnUse">
      <feOffset dy="3" input="SourceAlpha"/>
      <feGaussianBlur stdDeviation="3" result="blur-6"/>
      <feFlood flood-opacity="0.502"/>
      <feComposite operator="in" in2="blur-6"/>
      <feComposite in="SourceGraphic"/>
    </filter>
    <filter id="Path_8" x="322.302" y="16.922" width="49.697" height="55.08" filterUnits="userSpaceOnUse">
      <feOffset dy="3" input="SourceAlpha"/>
      <feGaussianBlur stdDeviation="3" result="blur-7"/>
      <feFlood flood-opacity="0.502"/>
      <feComposite operator="in" in2="blur-7"/>
      <feComposite in="SourceGraphic"/>
    </filter>
    <filter id="Path_9" x="33.097" y="14.338" width="45.543" height="42.618" filterUnits="userSpaceOnUse">
      <feOffset dy="3" input="SourceAlpha"/>
      <feGaussianBlur stdDeviation="3" result="blur-8"/>
      <feFlood flood-opacity="0.502"/>
      <feComposite operator="in" in2="blur-8"/>
      <feComposite in="SourceGraphic"/>
    </filter>
    <filter id="Path_10" x="8.439" y="28.572" width="45.544" height="42.618" filterUnits="userSpaceOnUse">
      <feOffset dy="3" input="SourceAlpha"/>
      <feGaussianBlur stdDeviation="3" result="blur-9"/>
      <feFlood flood-opacity="0.502"/>
      <feComposite operator="in" in2="blur-9"/>
      <feComposite in="SourceGraphic"/>
    </filter>
    <filter id="Path_11" x="8.439" y="0.099" width="45.543" height="42.618" filterUnits="userSpaceOnUse">
      <feOffset dy="3" input="SourceAlpha"/>
      <feGaussianBlur stdDeviation="3" result="blur-10"/>
      <feFlood flood-opacity="0.502"/>
      <feComposite operator="in" in2="blur-10"/>
      <feComposite in="SourceGraphic"/>
    </filter>
    <filter id="Path_12" x="0" y="20.823" width="30.96" height="29.65" filterUnits="userSpaceOnUse">
      <feOffset dy="3" input="SourceAlpha"/>
      <feGaussianBlur stdDeviation="3" result="blur-11"/>
      <feFlood flood-opacity="0.502"/>
      <feComposite operator="in" in2="blur-11"/>
      <feComposite in="SourceGraphic"/>
    </filter>
    <filter id="Path_13" x="35.931" y="41.543" width="30.959" height="29.65" filterUnits="userSpaceOnUse">
      <feOffset dy="3" input="SourceAlpha"/>
      <feGaussianBlur stdDeviation="3" result="blur-12"/>
      <feFlood flood-opacity="0.502"/>
      <feComposite operator="in" in2="blur-12"/>
      <feComposite in="SourceGraphic"/>
    </filter>
    <filter id="Path_14" x="35.929" y="0.1" width="30.958" height="29.65" filterUnits="userSpaceOnUse">
      <feOffset dy="3" input="SourceAlpha"/>
      <feGaussianBlur stdDeviation="3" result="blur-13"/>
      <feFlood flood-opacity="0.502"/>
      <feComposite operator="in" in2="blur-13"/>
      <feComposite in="SourceGraphic"/>
    </filter>
    <filter id="Path_15" x="160.439" y="0" width="49.55" height="49.289" filterUnits="userSpaceOnUse">
      <feOffset dy="3" input="SourceAlpha"/>
      <feGaussianBlur stdDeviation="3" result="blur-14"/>
      <feFlood flood-opacity="0.502"/>
      <feComposite operator="in" in2="blur-14"/>
      <feComposite in="SourceGraphic"/>
    </filter>
    <filter id="Path_16" x="160.663" y="23.848" width="51.791" height="47.406" filterUnits="userSpaceOnUse">
      <feOffset dy="3" input="SourceAlpha"/>
      <feGaussianBlur stdDeviation="3" result="blur-15"/>
      <feFlood flood-opacity="0.502"/>
      <feComposite operator="in" in2="blur-15"/>
      <feComposite in="SourceGraphic"/>
    </filter>
    <filter id="Rectangle_2" x="303.834" y="59.638" width="68.166" height="24.459" filterUnits="userSpaceOnUse">
      <feOffset dy="3" input="SourceAlpha"/>
      <feGaussianBlur stdDeviation="3" result="blur-16"/>
      <feFlood flood-opacity="0.502"/>
      <feComposite operator="in" in2="blur-16"/>
      <feComposite in="SourceGraphic"/>
    </filter>
  </defs>
  <g id="Group_48" data-name="Group 48" transform="translate(-781 -274)">
    <g class="cls-18" transform="matrix(1, 0, 0, 1, 781, 274)">
      <path id="Path_2-2" data-name="Path 2" class="cls-1" d="M4198.007-338.3l-15.7-20.784h-.748V-338.3h-9.868v-53.08h9.868v23.4h.748l17.649-23.4h10.915L4190.306-363.8,4209.37-338.3Z" transform="translate(-4085.84 397.48)"/>
    </g>
    <g class="cls-17" transform="matrix(1, 0, 0, 1, 781, 274)">
      <path id="Path_3-2" data-name="Path 3" class="cls-1" d="M4239.8-378.716v3.243a10.945,10.945,0,0,1-7.028,10.424c6.1,2.163,8.187,6.487,8.187,10.813v3.86c0,9.961-9.19,12.9-16.99,12.9s-16.989-2.934-16.989-12.9v-3.86c0-4.326,2.085-8.65,8.108-10.813a10.985,10.985,0,0,1-6.95-10.424v-3.243c0-7.568,5.87-12.666,15.831-12.666S4239.8-386.285,4239.8-378.716Zm-9.036,25.1c0-5.019-2.238-6.64-5.946-6.64h-1.7c-3.784,0-5.945,1.621-5.945,6.64V-352c0,5.019,2.856,6.255,6.794,6.255s6.8-1.236,6.8-6.255Zm-12.432-23.088v1c0,4.788,1.621,6.487,4.555,6.487h1.468c3.166,0,5.25-1.468,5.25-6.487v-1c0-5.175-2.47-6.409-5.636-6.409S4218.333-381.884,4218.333-376.709Z" transform="translate(-4081.95 397.48)"/>
    </g>
    <g class="cls-16" transform="matrix(1, 0, 0, 1, 781, 274)">
      <path id="Path_4-2" data-name="Path 4" class="cls-1" d="M4303.853-338.9a43.622,43.622,0,0,1-6.953.6c-6.354,0-11.289-3.439-11.289-11.139V-367.3h-5.233v-7.178h5.233v-6.729l4.112-3.437h5.756v10.166h8.6v7.178h-8.6v13.755c0,4.038-.225,6.729,3.738,6.729a35.061,35.061,0,0,0,4.635-.374Z" transform="translate(-4073.86 398.22)"/>
    </g>
    <g class="cls-15" transform="matrix(1, 0, 0, 1, 781, 274)">
      <path id="Path_5-2" data-name="Path 5" class="cls-1" d="M4315.968-375.491v21.531c0,4.261,2.468,4.711,5.01,4.337l6.055-.971v-24.9h9.87v35.436h-9.87v-5.308l-7.027,5.832a7.079,7.079,0,0,1-2.094.3c-8.074,0-11.811-4.784-11.811-11.362v-24.9Z" transform="translate(-4071.02 399.23)"/>
    </g>
    <g class="cls-14" transform="matrix(1, 0, 0, 1, 781, 274)">
      <path id="Path_6-2" data-name="Path 6" class="cls-1" d="M4361.645-338.3v-5.308l-7.028,5.832a7.059,7.059,0,0,1-2.092.3c-8.074,0-11.812-4.784-11.812-11.362v-13.233c0-7.326,3.363-12.485,14.5-12.485a17.876,17.876,0,0,1,6.429,1.12v-17.943h9.869v53.08Zm0-26.913a10.96,10.96,0,0,0-5.606-1.421c-3.739,0-5.458,1.72-5.458,5.159v9.269c0,4.261,2.467,4.711,5.008,4.337l6.056-.971Z" transform="translate(-4067.2 397.48)"/>
    </g>
    <g class="cls-13" transform="matrix(1, 0, 0, 1, 781, 274)">
      <path id="Path_7-2" data-name="Path 7" class="cls-1" d="M4376.134-380.616v-10.767H4386v10.767Zm0,42.313v-35.436H4386V-338.3Z" transform="translate(-4063.3 397.48)"/>
    </g>
    <g class="cls-12" transform="matrix(1, 0, 0, 1, 781, 274)">
      <path id="Path_8-2" data-name="Path 8" class="cls-1" d="M4424.466-363.372v11.736c0,9.645-8.3,12.485-15.849,12.485s-15.849-2.84-15.849-12.485v-11.736c0-7.328,4.71-12.859,15.849-12.859S4424.466-370.7,4424.466-363.372Zm-21.831,1.346v8.6c0,4.71,1.794,6.654,5.982,6.654s5.981-1.944,5.981-6.654v-8.6c0-4.635-1.795-6.579-5.981-6.579S4402.635-366.662,4402.635-362.027Z" transform="translate(-4061.47 399.15)"/>
    </g>
    <g class="cls-11" transform="matrix(1, 0, 0, 1, 781, 274)">
      <path id="Path_9-2" data-name="Path 9" class="cls-1" d="M4140.591-353.94h10.918a2.855,2.855,0,0,0,2.472-1.427l5.458-9.456a2.85,2.85,0,0,0,0-2.853l-5.458-9.456a2.855,2.855,0,0,0-2.472-1.427h-10.918a2.855,2.855,0,0,0-2.472,1.427l-5.458,9.456a2.855,2.855,0,0,0,0,2.853l5.458,9.456A2.855,2.855,0,0,0,4140.591-353.94Z" transform="translate(-4090.18 398.9)"/>
    </g>
    <g class="cls-10" transform="matrix(1, 0, 0, 1, 781, 274)">
      <path id="Path_10-2" data-name="Path 10" class="cls-1" d="M4118.381-341.119H4129.3a2.854,2.854,0,0,0,2.471-1.427l5.46-9.456a2.855,2.855,0,0,0,0-2.853l-5.46-9.456a2.854,2.854,0,0,0-2.471-1.427h-10.919a2.854,2.854,0,0,0-2.471,1.427l-5.458,9.456a2.846,2.846,0,0,0,0,2.853l5.458,9.456A2.854,2.854,0,0,0,4118.381-341.119Z" transform="translate(-4092.63 400.31)"/>
    </g>
    <g class="cls-9" transform="matrix(1, 0, 0, 1, 781, 274)">
      <path id="Path_11-2" data-name="Path 11" class="cls-1" d="M4118.382-366.765H4129.3a2.853,2.853,0,0,0,2.472-1.427l5.458-9.456a2.851,2.851,0,0,0,0-2.853l-5.458-9.456a2.853,2.853,0,0,0-2.472-1.427h-10.917a2.854,2.854,0,0,0-2.472,1.427l-5.459,9.456a2.855,2.855,0,0,0,0,2.853l5.459,9.456A2.854,2.854,0,0,0,4118.382-366.765Z" transform="translate(-4092.63 397.48)"/>
    </g>
    <g class="cls-8" transform="matrix(1, 0, 0, 1, 781, 274)">
      <path id="Path_12-2" data-name="Path 12" class="cls-2" d="M4111.471-372.717h-5.048a1.426,1.426,0,0,0-1.236.715l-2.529,4.4a1.425,1.425,0,0,0,0,1.422l2.529,4.4a1.427,1.427,0,0,0,1.236.716h5.048a1.427,1.427,0,0,0,1.237-.716l2.529-4.4a1.425,1.425,0,0,0,0-1.422l-2.529-4.4A1.426,1.426,0,0,0,4111.471-372.717Z" transform="translate(-4093.47 399.54)"/>
    </g>
    <g class="cls-7" transform="matrix(1, 0, 0, 1, 781, 274)">
      <path id="Path_13-2" data-name="Path 13" class="cls-2" d="M4143.833-354.054h-5.048a1.428,1.428,0,0,0-1.236.715l-2.529,4.4a1.428,1.428,0,0,0,0,1.422l2.529,4.4a1.426,1.426,0,0,0,1.236.716h5.048a1.426,1.426,0,0,0,1.237-.716l2.529-4.4a1.428,1.428,0,0,0,0-1.422l-2.529-4.4A1.428,1.428,0,0,0,4143.833-354.054Z" transform="translate(-4089.9 401.6)"/>
    </g>
    <g class="cls-6" transform="matrix(1, 0, 0, 1, 781, 274)">
      <path id="Path_14-2" data-name="Path 14" class="cls-2" d="M4143.833-391.382h-5.047a1.427,1.427,0,0,0-1.237.716l-2.529,4.4a1.425,1.425,0,0,0,0,1.422l2.529,4.4a1.428,1.428,0,0,0,1.237.715h5.047a1.428,1.428,0,0,0,1.237-.715l2.529-4.4a1.428,1.428,0,0,0,0-1.422l-2.529-4.4A1.426,1.426,0,0,0,4143.833-391.382Z" transform="translate(-4089.9 397.48)"/>
    </g>
    <g class="cls-5" transform="matrix(1, 0, 0, 1, 781, 274)">
      <path id="Path_15-2" data-name="Path 15" class="cls-1" d="M4257.967-360.351l8.223.08a8.861,8.861,0,0,1,1.236.088v-9.235l-5.721-.053c-4.538,0-4.86-2.84-4.86-5.308v-2.238c0-3.364,1.869-4.934,8-4.934,2.126,0,5.062.029,7.671.061l6.012-5.225v-4.258c-2.916-.224-9.719,0-13.981,0-10.915,0-17.568,3.963-17.568,12.71v5.3C4246.977-366.032,4251.479-360.351,4257.967-360.351Z" transform="translate(-4077.54 397.47)"/>
    </g>
    <g class="cls-4" transform="matrix(1, 0, 0, 1, 781, 274)">
      <path id="Path_16-2" data-name="Path 16" class="cls-1" d="M4276.006-369.992l-8.568,7.445c3.391.491,3.665,3,3.665,5.215v2.02c0,3.513-1.5,5.531-9.645,5.531-2.4,0-5.485-.014-8.179-.031l-6.1,5.3v3.924s10.018-.074,15.325-.074c11.813,0,18.465-3.737,18.465-12.933V-359.5C4280.97-364.009,4279.1-367.864,4276.006-369.992Z" transform="translate(-4077.52 399.84)"/>
    </g>
    <g class="cls-3" transform="matrix(1, 0, 0, 1, 781, 274)">
      <rect id="Rectangle_2-2" data-name="Rectangle 2" class="cls-2" width="50.166" height="6.459" transform="translate(312.83 65.64)"/>
    </g>
  </g>
</svg>
